<?xml version="1.0" encoding="utf-8"?>
<svg version="1.0" width="400" height="375" id="svg2" xmlns="http://www.w3.org/2000/svg">
  <path d="M 225,37 A 26,26 0 1 1 173,37 A 26,26 0 1 1 225,37 z" transform="translate(1,0)" id="path1891" style="opacity:1;fill:#ffffff;fill-opacity:1;fill-rule:nonzero;stroke:#000000;stroke-width:1.875;stroke-linecap:butt;stroke-linejoin:round;stroke-miterlimit:4;stroke-dasharray:none;stroke-dashoffset:0;stroke-opacity:1"/>
  <path d="M 225,37 A 26,26 0 1 1 173,37 A 26,26 0 1 1 225,37 z" transform="matrix(1, 0, 0, 1, -99, 90)" id="use2779" style="opacity:1;fill:#ffffff;fill-opacity:1;fill-rule:nonzero;stroke:#000000;stroke-width:1.875;stroke-linecap:butt;stroke-linejoin:round;stroke-miterlimit:4;stroke-dasharray:none;stroke-dashoffset:0;stroke-opacity:1"/>
  <path d="M 225,37 A 26,26 0 1 1 173,37 A 26,26 0 1 1 225,37 z" transform="matrix(1, 0, 0, 1, -39, 180)" id="use2781" style="opacity:1;fill:#ffffff;fill-opacity:1;fill-rule:nonzero;stroke:#000000;stroke-width:1.875;stroke-linecap:butt;stroke-linejoin:round;stroke-miterlimit:4;stroke-dasharray:none;stroke-dashoffset:0;stroke-opacity:1"/>
  <path d="M 225,37 A 26,26 0 1 1 173,37 A 26,26 0 1 1 225,37 z" transform="matrix(1, 0, 0, 1, 31, 272)" id="use2783" style="opacity:1;fill:#ffffff;fill-opacity:1;fill-rule:nonzero;stroke:#000000;stroke-width:1.875;stroke-linecap:butt;stroke-linejoin:round;stroke-miterlimit:4;stroke-dasharray:none;stroke-dashoffset:0;stroke-opacity:1"/>
  <path d="M 225,37 A 26,26 0 1 1 173,37 A 26,26 0 1 1 225,37 z" transform="matrix(1, 0, 0, 1, 101, 90)" id="use2785" style="opacity:1;fill:#ffffff;fill-opacity:1;fill-rule:nonzero;stroke:#000000;stroke-width:1.875;stroke-linecap:butt;stroke-linejoin:round;stroke-miterlimit:4;stroke-dasharray:none;stroke-dashoffset:0;stroke-opacity:1"/>
  <path d="M 225,37 A 26,26 0 1 1 173,37 A 26,26 0 1 1 225,37 z" transform="matrix(1, 0, 0, 1, 161, 180)" id="use2787" style="opacity:1;fill:#ffffff;fill-opacity:1;fill-rule:nonzero;stroke:#000000;stroke-width:1.875;stroke-linecap:butt;stroke-linejoin:round;stroke-miterlimit:4;stroke-dasharray:none;stroke-dashoffset:0;stroke-opacity:1"/>
  <path d="M 225,37 A 26,26 0 1 1 173,37 A 26,26 0 1 1 225,37 z" transform="matrix(1, 0, 0, 1, -159, 180)" id="use2789" style="opacity:1;fill:#ffffff;fill-opacity:1;fill-rule:nonzero;stroke:#000000;stroke-width:1.875;stroke-linecap:butt;stroke-linejoin:round;stroke-miterlimit:4;stroke-dasharray:none;stroke-dashoffset:0;stroke-opacity:1"/>
  <path d="M 225,37 A 26,26 0 1 1 173,37 A 26,26 0 1 1 225,37 z" transform="matrix(1, 0, 0, 1, -111, 272.00048828125)" id="use2791" style="opacity:1;fill:#ffffff;fill-opacity:1;fill-rule:nonzero;stroke:#000000;stroke-width:1.875;stroke-linecap:butt;stroke-linejoin:round;stroke-miterlimit:4;stroke-dasharray:none;stroke-dashoffset:0;stroke-opacity:1"/>
  <path d="M 225,37 A 26,26 0 1 1 173,37 A 26,26 0 1 1 225,37 z" transform="matrix(1, 0, 0, 1, 106, 278)" id="use2793" style="opacity:1;fill:#ffffff;fill-opacity:1;fill-rule:nonzero;stroke:#000000;stroke-width:1.875;stroke-linecap:butt;stroke-linejoin:round;stroke-miterlimit:4;stroke-dasharray:none;stroke-dashoffset:0;stroke-opacity:1"/>
  <text x="262" y="77" id="text2803" style="font: 24px / 125% Arial; text-align: center; writing-mode: lr-tb; text-anchor: middle; fill: rgb(0, 0, 0); fill-opacity: 1; stroke: none; stroke-width: 1px; stroke-linecap: butt; stroke-linejoin: miter; stroke-opacity: 1; white-space: pre;"><tspan x="262" y="77" id="tspan2805">i</tspan></text>
  <text x="140" y="77" id="text2807" style="font: 24px / 125% Arial; text-align: center; writing-mode: lr-tb; text-anchor: middle; fill: rgb(0, 0, 0); fill-opacity: 1; stroke: none; stroke-width: 1px; stroke-linecap: butt; stroke-linejoin: miter; stroke-opacity: 1; white-space: pre;"><tspan x="140" y="77" id="tspan2809">t</tspan></text>
  <text x="141" y="171" id="text2811" style="font: 24px / 125% Arial; text-align: center; writing-mode: lr-tb; text-anchor: middle; fill: rgb(0, 0, 0); fill-opacity: 1; stroke: none; stroke-width: 1px; stroke-linecap: butt; stroke-linejoin: miter; stroke-opacity: 1; white-space: pre;"><tspan x="141" y="171" id="tspan2813">e</tspan></text>
  <text x="56" y="171" id="text2815" style="font: 24px / 125% Arial; text-align: center; writing-mode: lr-tb; text-anchor: middle; fill: rgb(0, 0, 0); fill-opacity: 1; stroke: none; stroke-width: 1px; stroke-linecap: butt; stroke-linejoin: miter; stroke-opacity: 1; white-space: pre;"><tspan x="56" y="171" id="tspan2817">o</tspan></text>
  <text x="343" y="171" id="text2819" style="font: 24px / 125% Arial; text-align: center; writing-mode: lr-tb; text-anchor: middle; fill: rgb(0, 0, 0); fill-opacity: 1; stroke: none; stroke-width: 1px; stroke-linecap: butt; stroke-linejoin: miter; stroke-opacity: 1; white-space: pre;"><tspan x="343" y="171" id="tspan2821">n</tspan></text>
  <text x="318" y="273" id="text2823" style="font: 24px / 125% Arial; text-align: center; writing-mode: lr-tb; text-anchor: middle; fill: rgb(0, 0, 0); fill-opacity: 1; stroke: none; stroke-width: 1px; stroke-linecap: butt; stroke-linejoin: miter; stroke-opacity: 1; white-space: pre;"><tspan x="318" y="273" id="tspan2825">n</tspan></text>
  <text x="218" y="265" id="text2827" style="font: 24px / 125% Arial; text-align: center; writing-mode: lr-tb; text-anchor: middle; fill: rgb(0, 0, 0); fill-opacity: 1; stroke: none; stroke-width: 1px; stroke-linecap: butt; stroke-linejoin: miter; stroke-opacity: 1; white-space: pre;"><tspan x="218" y="265" id="tspan2829">n</tspan></text>
  <text x="100" y="265" id="text2831" style="font: 24px / 125% Arial; text-align: center; writing-mode: lr-tb; text-anchor: middle; fill: rgb(0, 0, 0); fill-opacity: 1; stroke: none; stroke-width: 1px; stroke-linecap: butt; stroke-linejoin: miter; stroke-opacity: 1; white-space: pre;"><tspan x="100" y="265" id="tspan2833">a</tspan></text>
  <text x="99.900391" y="134.66406" id="text2835" style="font: 24px / 125% Arial; text-align: center; writing-mode: lr-tb; text-anchor: middle; fill: rgb(0, 0, 0); fill-opacity: 1; stroke: none; stroke-width: 1px; stroke-linecap: butt; stroke-linejoin: miter; stroke-opacity: 1; white-space: pre;"><tspan x="99.900391" y="134.66406" id="tspan2837">t</tspan></text>
  <text x="300.01172" y="135.69531" id="text2839" style="font: 24px / 125% Arial; text-align: center; writing-mode: lr-tb; text-anchor: middle; fill: rgb(0, 0, 0); fill-opacity: 1; stroke: none; stroke-width: 1px; stroke-linecap: butt; stroke-linejoin: miter; stroke-opacity: 1; white-space: pre;"><tspan x="300.01172" y="135.69531" id="tspan2841">i</tspan></text>
  <text x="359.98242" y="225.69531" id="text2843" style="font: 24px / 125% Arial; text-align: center; writing-mode: lr-tb; text-anchor: middle; fill: rgb(0, 0, 0); fill-opacity: 1; stroke: none; stroke-width: 1px; stroke-linecap: butt; stroke-linejoin: miter; stroke-opacity: 1; white-space: pre;"><tspan x="359.98242" y="225.69531" id="tspan2845">in</tspan></text>
  <text x="304.98242" y="323.69531" id="text2847" style="font: 24px / 125% Arial; text-align: center; writing-mode: lr-tb; text-anchor: middle; fill: rgb(0, 0, 0); fill-opacity: 1; stroke: none; stroke-width: 1px; stroke-linecap: butt; stroke-linejoin: miter; stroke-opacity: 1; white-space: pre;"><tspan x="304.98242" y="323.69531" id="tspan2849">inn</tspan></text>
  <text x="160.35742" y="224.64062" id="text2851" style="font: 24px / 125% Arial; text-align: center; writing-mode: lr-tb; text-anchor: middle; fill: rgb(0, 0, 0); fill-opacity: 1; stroke: none; stroke-width: 1px; stroke-linecap: butt; stroke-linejoin: miter; stroke-opacity: 1; white-space: pre;"><tspan x="160.35742" y="224.64062" id="tspan2853">te</tspan></text>
  <text x="87.824219" y="316.64111" id="text2855" style="font: 24px / 125% Arial; text-align: center; writing-mode: lr-tb; text-anchor: middle; fill: rgb(0, 0, 0); fill-opacity: 1; stroke: none; stroke-width: 1px; stroke-linecap: butt; stroke-linejoin: miter; stroke-opacity: 1; white-space: pre;"><tspan x="87.824219" y="316.64111" id="tspan2857">tea</tspan></text>
  <text x="230.60352" y="316.64062" id="text2859" style="font: 24px / 125% Arial; text-align: center; writing-mode: lr-tb; text-anchor: middle; fill: rgb(0, 0, 0); fill-opacity: 1; stroke: none; stroke-width: 1px; stroke-linecap: butt; stroke-linejoin: miter; stroke-opacity: 1; white-space: pre;"><tspan x="230.60352" y="316.64062" id="tspan2861">ten</tspan></text>
  <text x="40.328125" y="224.64062" id="text2863" style="font: 24px / 125% Arial; text-align: center; writing-mode: lr-tb; text-anchor: middle; fill: rgb(0, 0, 0); fill-opacity: 1; stroke: none; stroke-width: 1px; stroke-linecap: butt; stroke-linejoin: miter; stroke-opacity: 1; white-space: pre;"><tspan x="40.328125" y="224.64062" id="tspan2865">to</tspan></text>
  <text x="90.054688" y="359.02148" id="text2867" style="font: 28px / 125% Arial; text-align: center; writing-mode: lr-tb; text-anchor: middle; fill: rgb(0, 0, 148); fill-opacity: 1; stroke: none; stroke-width: 1px; stroke-linecap: butt; stroke-linejoin: miter; stroke-opacity: 1; white-space: pre;"><tspan x="90.054688" y="359.02148" id="tspan2869">3</tspan></text>
  <text x="225.2207" y="359.02148" id="text2871" style="font: 28px / 125% Arial; text-align: center; writing-mode: lr-tb; text-anchor: middle; fill: rgb(0, 0, 148); fill-opacity: 1; stroke: none; stroke-width: 1px; stroke-linecap: butt; stroke-linejoin: miter; stroke-opacity: 1; white-space: pre;"><tspan x="225.2207" y="359.02148" id="tspan2873">12</tspan></text>
  <text x="322.04102" y="361.02148" id="text2875" style="font: 28px / 125% Arial; text-align: center; writing-mode: lr-tb; text-anchor: middle; fill: rgb(0, 0, 148); fill-opacity: 1; stroke: none; stroke-width: 1px; stroke-linecap: butt; stroke-linejoin: miter; stroke-opacity: 1; white-space: pre;"><tspan x="322.04102" y="361.02148" id="tspan2877">9</tspan></text>
  <text x="39.979492" y="269.02148" id="text2879" style="font: 28px / 125% Arial; text-align: center; writing-mode: lr-tb; text-anchor: middle; fill: rgb(0, 0, 148); fill-opacity: 1; stroke: none; stroke-width: 1px; stroke-linecap: butt; stroke-linejoin: miter; stroke-opacity: 1; white-space: pre;"><tspan x="39.979492" y="269.02148" id="tspan2881">7</tspan></text>
  <text x="358.04102" y="269.02148" id="text2883" style="font: 28px / 125% Arial; text-align: center; writing-mode: lr-tb; text-anchor: middle; fill: rgb(0, 0, 148); fill-opacity: 1; stroke: none; stroke-width: 1px; stroke-linecap: butt; stroke-linejoin: miter; stroke-opacity: 1; white-space: pre;"><tspan x="358.04102" y="269.02148" id="tspan2885">5</tspan></text>
  <text x="299.98633" y="179.02148" id="text2889" style="font: 28px / 125% Arial; text-align: center; writing-mode: lr-tb; text-anchor: middle; fill: rgb(0, 0, 148); fill-opacity: 1; stroke: none; stroke-width: 1px; stroke-linecap: butt; stroke-linejoin: miter; stroke-opacity: 1; white-space: pre;"><tspan x="299.98633" y="179.02148" id="tspan2891">11</tspan></text>
  <path d="M 173.265 57.847 L 124.362 107.468" id="path2893" style="fill:none;fill-opacity:0.75;fill-rule:evenodd;stroke:#000000;stroke-width:1.59399998;stroke-linecap:round;stroke-linejoin:round;stroke-miterlimit:4;stroke-dasharray:none;stroke-opacity:1" transform="matrix(-1, 0, 0, -1, 297.626999, 165.315002)"/>
  <path d="M 166.477 64.533 L 168.693 55.644 L 175.366 62.317 L 166.477 64.533 Z" id="path2895" style="fill:#000000;fill-opacity:1;fill-rule:evenodd;stroke:#000000;stroke-width:1.27539158px;stroke-linecap:butt;stroke-linejoin:round;stroke-opacity:1" transform="matrix(-1, 0, 0, -1, 341.843002, 120.176998)"/>
  <g id="use2901" transform="matrix(0.901838, -0.901838, -0.901838, -0.901838, 441.126923, 180.785461)" style="">
    <path d="M -51.618795,132.46237 L -51.221046,187.08638" id="path2450" style="fill:none;fill-opacity:0.75;fill-rule:evenodd;stroke:#000000;stroke-width:1.25;stroke-linecap:round;stroke-linejoin:round;stroke-miterlimit:4;stroke-dasharray:none;stroke-opacity:1" transform="matrix(1, 0, 0, 1, 9.466838690741497e-8, 9.466840467098336e-8)"/>
    <path d="M -51.164452,189.47286 L -54.864361,183.31555 L -47.464542,183.31555 L -51.164452,189.47286 z" id="path2452" style="fill:#000000;fill-opacity:1;fill-rule:evenodd;stroke:#000000;stroke-width:1px;stroke-linecap:butt;stroke-linejoin:round;stroke-opacity:1"/>
  </g>
  <g transform="matrix(-0.726824, -0.496186, 0.496186, -0.726824, -47.016552, 264.269196)" id="use2909">
    <path d="M -51.618795,132.46237 L -51.221046,187.08638" id="path2456" style="fill:none;fill-opacity:0.75;fill-rule:evenodd;stroke:#000000;stroke-width:1.25;stroke-linecap:round;stroke-linejoin:round;stroke-miterlimit:4;stroke-dasharray:none;stroke-opacity:1"/>
    <path d="M -51.164452,189.47286 L -54.864361,183.31555 L -47.464542,183.31555 L -51.164452,189.47286 z" id="path2458" style="fill:#000000;fill-opacity:1;fill-rule:evenodd;stroke:#000000;stroke-width:1px;stroke-linecap:butt;stroke-linejoin:round;stroke-opacity:1"/>
  </g>
  <g transform="matrix(0.726824, -0.496186, -0.496186, -0.726824, 246.878113, 264.269104)" id="use2911">
    <path d="m -51.618795,132.46237 0.397749,54.62401" id="path951" style="fill:none;fill-opacity:0.75;fill-rule:evenodd;stroke:#000000;stroke-width:1.25;stroke-linecap:round;stroke-linejoin:round;stroke-miterlimit:4;stroke-dasharray:none;stroke-opacity:1"/>
    <path d="m -51.164452,189.47286 -3.699909,-6.15731 h 7.399819 z" id="path953" style="fill:#000000;fill-opacity:1;fill-rule:evenodd;stroke:#000000;stroke-width:1px;stroke-linecap:butt;stroke-linejoin:round;stroke-opacity:1"/>
  </g>
  <g transform="matrix(0.726824, -0.496186, -0.496186, -0.726824, 446.170959, 264.269196)" id="use2913">
    <path d="m -51.618795,132.46237 0.397749,54.62401" id="path945" style="fill:none;fill-opacity:0.75;fill-rule:evenodd;stroke:#000000;stroke-width:1.25;stroke-linecap:round;stroke-linejoin:round;stroke-miterlimit:4;stroke-dasharray:none;stroke-opacity:1"/>
    <path d="m -51.164452,189.47286 -3.699909,-6.15731 h 7.399819 z" id="path947" style="fill:#000000;fill-opacity:1;fill-rule:evenodd;stroke:#000000;stroke-width:1px;stroke-linecap:butt;stroke-linejoin:round;stroke-opacity:1"/>
  </g>
  <g transform="matrix(-0.882107, -0.570707, 0.602194, -0.835983, -22.294834, 365.59198)" id="use2915">
    <path d="m -51.618795,132.46237 0.397749,54.62401" id="path933" style="fill:none;fill-opacity:0.75;fill-rule:evenodd;stroke:#000000;stroke-width:1.25;stroke-linecap:round;stroke-linejoin:round;stroke-miterlimit:4;stroke-dasharray:none;stroke-opacity:1"/>
    <path d="m -51.164452,189.47286 -3.699909,-6.15731 h 7.399819 z" id="path935" style="fill:#000000;fill-opacity:1;fill-rule:evenodd;stroke:#000000;stroke-width:1px;stroke-linecap:butt;stroke-linejoin:round;stroke-opacity:1"/>
  </g>
  <g transform="matrix(-0.882107, -0.570707, 0.602194, -0.835983, 192.70517, 371.59198)" id="use2917">
    <path d="m -51.618795,132.46237 0.397749,54.62401" id="path927" style="fill:none;fill-opacity:0.75;fill-rule:evenodd;stroke:#000000;stroke-width:1.25;stroke-linecap:round;stroke-linejoin:round;stroke-miterlimit:4;stroke-dasharray:none;stroke-opacity:1"/>
    <path d="m -51.164452,189.47286 -3.699909,-6.15731 h 7.399819 z" id="path929" style="fill:#000000;fill-opacity:1;fill-rule:evenodd;stroke:#000000;stroke-width:1px;stroke-linecap:butt;stroke-linejoin:round;stroke-opacity:1"/>
  </g>
  <path d="M 225,37 A 26,26 0 1 1 173,37 A 26,26 0 1 1 225,37 z" transform="matrix(1, 0, 0, 1, -39.0004997253418, 284.00048828125)" id="use2442" style="opacity:1;fill:#ffffff;fill-opacity:1;fill-rule:nonzero;stroke:#000000;stroke-width:1.875;stroke-linecap:butt;stroke-linejoin:round;stroke-miterlimit:4;stroke-dasharray:none;stroke-dashoffset:0;stroke-opacity:1"/>
  <g transform="matrix(0.882107, -0.570707, -0.602194, -0.835983, 341.566895, 365.592102)" id="use2444">
    <path d="m -51.618795,132.46237 0.397749,54.62401" id="path921" style="fill:none;fill-opacity:0.75;fill-rule:evenodd;stroke:#000000;stroke-width:1.25;stroke-linecap:round;stroke-linejoin:round;stroke-miterlimit:4;stroke-dasharray:none;stroke-opacity:1"/>
    <path d="m -51.164452,189.47286 -3.699909,-6.15731 h 7.399819 z" id="path923" style="fill:#000000;fill-opacity:1;fill-rule:evenodd;stroke:#000000;stroke-width:1px;stroke-linecap:butt;stroke-linejoin:round;stroke-opacity:1"/>
  </g>
  <g transform="matrix(-1.196701, -0.015299, 0.021458, -0.853216, 95.187241, 405.139832)" id="g4537">
    <path d="M -51.618795,132.46237 L -51.221046,187.08638" id="path4539" style="fill:none;fill-opacity:0.75;fill-rule:evenodd;stroke:#000000;stroke-width:1.08848143;stroke-linecap:round;stroke-linejoin:round;stroke-miterlimit:4;stroke-dasharray:none;stroke-opacity:1"/>
    <path d="M -51.164452,189.47286 L -54.864361,183.31555 L -47.464542,183.31555 L -51.164452,189.47286 z" id="path4541" style="fill:#000000;fill-opacity:1;fill-rule:evenodd;stroke:#000000;stroke-width:0.87078512px;stroke-linecap:butt;stroke-linejoin:round;stroke-opacity:1"/>
  </g>
  <text x="160.59715" y="329.57861" id="text4543" style="font: 24px / 125% Arial; text-align: center; writing-mode: lr-tb; text-anchor: middle; fill: rgb(0, 0, 0); fill-opacity: 1; stroke: none; stroke-width: 1px; stroke-linecap: butt; stroke-linejoin: miter; stroke-opacity: 1; white-space: pre;"><tspan x="160.59715" y="329.57861" id="tspan4545">ted</tspan></text>
  <text x="149.49609" y="268.10455" id="text4547" style="font: 24px / 125% Arial; text-align: center; writing-mode: lr-tb; text-anchor: middle; fill: rgb(0, 0, 0); fill-opacity: 1; stroke: none; stroke-width: 1px; stroke-linecap: butt; stroke-linejoin: miter; stroke-opacity: 1; white-space: pre;"><tspan x="149.49609" y="268.10455" id="tspan4549">d</tspan></text>
  <text x="188.51068" y="87.989876" id="text4553" style="font: 24px / 125% Arial; text-align: center; writing-mode: lr-tb; text-anchor: middle; fill: rgb(0, 0, 0); fill-opacity: 1; stroke: none; stroke-width: 1px; stroke-linecap: butt; stroke-linejoin: miter; stroke-opacity: 1; white-space: pre;"><tspan x="188.51068" y="87.989876" id="tspan4555">A</tspan></text>
  <g transform="matrix(1.5157767,0.01937848,-0.0271798,1.0807088,282.53636,-79.781334)" id="use4559">
    <path d="M -52.017 134.932 L -51.619 189.556" id="path939" style="fill:none;fill-opacity:0.75;fill-rule:evenodd;stroke:#000000;stroke-width:1.08848;stroke-linecap:round;stroke-linejoin:round;stroke-miterlimit:4;stroke-dasharray:none;stroke-opacity:1" transform="matrix(-1, 0, 0, -1, -103.635997, 324.488007)"/>
    <path d="M -52.076 138.703 L -55.774 132.546 L -48.374 132.546 L -52.076 138.703 Z" id="path941" style="fill:#000000;fill-opacity:1;fill-rule:evenodd;stroke:#000000;stroke-width:0.870785px;stroke-linecap:butt;stroke-linejoin:round;stroke-opacity:1" transform="matrix(-1, 0, 0, -1, -104.147998, 271.249009)"/>
  </g>
  <path d="M 225,37 A 26,26 0 1 1 173,37 A 26,26 0 1 1 225,37 z" transform="matrix(1, 0, 0, 1, 1, 118)" id="use4561" style="opacity:1;fill:#ffffff;fill-opacity:1;fill-rule:nonzero;stroke:#000000;stroke-width:1.875;stroke-linecap:butt;stroke-linejoin:round;stroke-miterlimit:4;stroke-dasharray:none;stroke-dashoffset:0;stroke-opacity:1"/>
  <text x="200.01172" y="163.25586" id="text4563" style="font: 24px / 125% Arial; text-align: center; writing-mode: lr-tb; text-anchor: middle; fill: rgb(0, 0, 0); fill-opacity: 1; stroke: none; stroke-width: 1px; stroke-linecap: butt; stroke-linejoin: miter; stroke-opacity: 1; white-space: pre;"><tspan x="200.01172" y="163.25586" id="tspan4565">A</tspan></text>
  <text x="228.30049" y="200.07301" id="text4587" style="font: 28px / 125% Arial; text-align: center; writing-mode: lr-tb; text-anchor: middle; fill: rgb(0, 0, 148); fill-opacity: 1; stroke: none; stroke-width: 1px; stroke-linecap: butt; stroke-linejoin: miter; stroke-opacity: 1; white-space: pre;"><tspan x="228.30049" y="200.07301" id="tspan4589">15</tspan></text>
  <text x="174.62402" y="366.24948" id="text4591" style="font: 28px / 125% Arial; text-align: center; writing-mode: lr-tb; text-anchor: middle; fill: rgb(0, 0, 148); fill-opacity: 1; stroke: none; stroke-width: 1px; stroke-linecap: butt; stroke-linejoin: miter; stroke-opacity: 1; white-space: pre;"><tspan x="174.62402" y="366.24948" id="tspan4593">4</tspan></text>
</svg>